<svg xmlns="http://www.w3.org/2000/svg" viewBox="0 0 1024 1024">
<g fill="black" stroke="none">
<path d="M 550.0,697.5 L 546.0,697.5 L 542.0,697.5 L 538.0,697.5 L 534.0,697.5 L 530.0,697.5 L 526.0,697.5 L 522.0,697.5 L 518.0,697.5 L 514.0,697.5 L 510.0,697.5 L 506.0,697.5 L 502.0,697.5 L 498.0,697.5 L 494.0,697.5 L 490.0,697.5 L 486.0,697.5 L 482.0,697.5 L 478.0,697.5 L 474.0,697.5 L 470.0,697.5 L 466.0,697.5 L 462.0,697.5 L 458.0,697.5 L 454.0,697.5 L 450.0,697.5 L 446.0,697.5 L 444.0,696.5 L 447.0,695.5 L 450.0,694.5 L 452.5,693.0 L 455.0,691.5 L 458.0,690.5 L 460.0,688.5 L 462.5,687.0 L 464.5,685.0 L 466.0,682.5 L 467.5,680.0 L 469.0,677.5 L 470.5,675.0 L 471.5,672.0 L 472.5,669.0 L 473.5,666.0 L 474.5,663.0 L 475.5,660.0 L 476.5,657.0 L 477.5,654.0 L 479.0,651.5 L 480.5,649.0 L 482.0,646.5 L 483.5,644.0 L 485.5,642.0 L 487.5,640.0 L 489.5,638.0 L 491.5,636.0 L 493.5,634.0 L 495.5,632.0 L 498.0,630.5 L 500.0,628.5 L 502.5,627.0 L 505.0,625.5 L 507.5,624.0 L 510.0,622.5 L 512.5,621.0 L 514.5,619.0 L 517.0,617.5 L 519.0,615.5 L 521.5,614.0 L 523.5,612.0 L 525.5,610.0 L 527.5,608.0 L 529.0,605.5 L 530.5,603.0 L 532.0,600.5 L 533.5,598.0 L 534.5,595.0 L 533.5,593.0 L 532.5,596.0 L 530.5,598.0 L 529.0,600.5 L 527.0,602.5 L 525.5,605.0 L 523.5,607.0 L 521.0,608.5 L 519.0,610.5 L 516.5,612.0 L 514.0,613.5 L 511.5,614.0 L 513.5,612.0 L 515.0,609.5 L 516.5,607.0 L 518.0,604.5 L 519.5,602.0 L 520.5,599.0 L 521.5,596.0 L 522.0,592.5 L 522.5,589.0 L 522.5,585.0 L 522.0,581.5 L 521.5,578.0 L 520.5,575.0 L 519.5,572.0 L 518.0,569.5 L 516.5,567.0 L 515.0,564.5 L 513.0,562.5 L 511.0,560.5 L 509.0,558.5 L 507.0,556.5 L 504.5,555.0 L 502.5,553.0 L 500.5,551.0 L 498.5,549.0 L 496.5,547.0 L 494.5,545.0 L 492.5,543.0 L 490.5,541.0 L 489.0,538.5 L 487.5,536.0 L 486.0,533.5 L 484.5,531.0 L 483.5,528.0 L 482.5,525.0 L 481.5,522.0 L 480.0,519.5 L 477.0,518.5 L 474.0,517.5 L 471.0,516.5 L 468.5,515.0 L 466.0,513.5 L 463.0,512.5 L 461.0,510.5 L 458.5,509.0 L 456.5,507.0 L 454.5,505.0 L 452.0,503.5 L 450.0,501.5 L 448.5,499.0 L 446.0,497.5 L 444.0,495.5 L 442.0,493.5 L 439.5,492.0 L 437.0,490.5 L 434.0,489.5 L 431.0,488.5 L 428.0,487.5 L 424.0,487.5 L 420.0,487.5 L 416.0,487.5 L 413.0,488.5 L 410.0,489.5 L 407.5,491.0 L 405.0,492.5 L 403.0,494.5 L 401.5,497.0 L 399.5,499.0 L 397.5,501.0 L 395.5,503.0 L 394.0,505.5 L 392.0,507.5 L 390.0,509.5 L 388.0,511.5 L 386.0,513.5 L 383.5,515.0 L 381.0,516.5 L 378.5,518.0 L 376.0,519.5 L 373.0,520.5 L 370.0,521.5 L 367.0,522.5 L 364.0,523.5 L 361.0,524.5 L 357.0,524.5 L 353.0,524.5 L 349.0,524.5 L 345.5,524.0 L 342.0,523.5 L 339.0,522.5 L 336.0,521.5 L 333.0,520.5 L 330.5,519.0 L 328.0,517.5 L 325.0,516.5 L 323.0,514.5 L 320.5,513.0 L 318.0,511.5 L 316.0,509.5 L 314.0,507.5 L 313.0,505.5 L 317.0,505.5 L 320.0,506.5 L 323.0,505.5 L 327.0,505.5 L 330.0,504.5 L 333.0,503.5 L 336.0,502.5 L 338.5,501.0 L 341.0,499.5 L 343.5,498.0 L 345.5,496.0 L 348.0,494.5 L 350.0,492.5 L 352.0,490.5 L 354.0,488.5 L 356.0,486.5 L 358.0,484.5 L 360.0,482.5 L 362.0,480.5 L 364.0,478.5 L 366.5,477.0 L 369.0,475.5 L 371.5,474.0 L 374.0,472.5 L 377.0,471.5 L 380.0,470.5 L 383.0,469.5 L 387.0,469.5 L 390.0,468.5 L 393.0,469.5 L 397.0,469.5 L 400.0,470.5 L 403.0,471.5 L 406.0,472.5 L 409.0,473.5 L 411.5,475.0 L 409.0,476.5 L 405.0,476.5 L 402.0,477.5 L 399.0,478.5 L 396.0,479.5 L 393.0,480.5 L 390.5,482.0 L 388.0,483.5 L 385.5,485.0 L 383.0,486.5 L 380.5,488.0 L 378.0,489.5 L 376.0,491.5 L 373.5,493.0 L 371.5,495.0 L 369.5,497.0 L 367.0,498.5 L 365.0,500.5 L 364.0,502.5 L 366.0,500.5 L 368.5,499.0 L 371.0,497.5 L 373.5,496.0 L 376.0,494.5 L 378.0,492.5 L 381.0,491.5 L 383.5,490.0 L 386.0,488.5 L 389.0,487.5 L 391.5,486.0 L 394.0,484.5 L 397.0,483.5 L 400.0,482.5 L 403.0,481.5 L 407.0,481.5 L 410.0,480.5 L 414.0,480.5 L 418.0,480.5 L 422.0,480.5 L 426.0,480.5 L 429.0,481.5 L 432.5,482.0 L 435.5,483.0 L 438.5,484.0 L 440.0,483.5 L 438.5,481.0 L 437.5,478.0 L 436.5,475.0 L 435.0,472.5 L 433.5,470.0 L 432.5,467.0 L 430.5,465.0 L 429.0,462.5 L 427.0,460.5 L 425.0,458.5 L 422.0,457.5 L 419.0,456.5 L 416.0,455.5 L 412.0,455.5 L 409.0,454.5 L 405.0,454.5 L 401.5,454.0 L 398.0,453.5 L 395.0,452.5 L 392.0,451.5 L 389.5,450.0 L 387.0,448.5 L 384.5,447.0 L 382.0,445.5 L 380.0,443.5 L 377.5,442.0 L 375.5,440.0 L 374.0,437.5 L 372.0,435.5 L 370.0,433.5 L 368.0,431.5 L 366.0,429.5 L 364.0,427.5 L 361.5,426.0 L 359.0,424.5 L 356.5,423.0 L 353.5,422.0 L 350.0,421.5 L 347.0,420.5 L 343.0,420.5 L 342.5,419.0 L 345.0,417.5 L 348.0,416.5 L 350.5,415.0 L 353.0,413.5 L 356.0,412.5 L 359.0,411.5 L 362.0,410.5 L 365.0,409.5 L 368.5,409.0 L 372.0,408.5 L 375.0,407.5 L 379.0,407.5 L 383.0,407.5 L 387.0,407.5 L 391.0,407.5 L 394.0,408.5 L 398.0,408.5 L 401.0,409.5 L 404.0,410.5 L 407.0,411.5 L 409.5,413.0 L 412.0,414.5 L 415.0,415.5 L 417.0,417.5 L 419.5,419.0 L 421.5,421.0 L 423.5,423.0 L 425.5,425.0 L 427.0,427.5 L 429.0,429.5 L 430.5,432.0 L 431.5,435.0 L 433.0,437.5 L 433.5,441.0 L 434.5,444.0 L 435.5,447.0 L 435.0,450.5 L 433.0,448.5 L 431.0,446.5 L 429.0,444.5 L 427.0,442.5 L 425.0,440.5 L 422.5,439.0 L 420.0,437.5 L 418.0,435.5 L 415.5,434.0 L 413.0,432.5 L 410.0,431.5 L 407.5,430.0 L 405.0,428.5 L 402.0,427.5 L 399.0,426.5 L 396.0,425.5 L 392.5,426.0 L 395.5,427.0 L 398.0,428.5 L 401.0,429.5 L 404.0,430.5 L 406.0,432.5 L 409.0,433.5 L 411.0,435.5 L 413.5,437.0 L 416.0,438.5 L 418.0,440.5 L 420.5,442.0 L 422.5,444.0 L 424.5,446.0 L 426.5,448.0 L 428.5,450.0 L 430.5,452.0 L 432.0,454.5 L 434.0,456.5 L 435.5,459.0 L 437.0,461.5 L 438.5,464.0 L 440.0,466.5 L 441.5,469.0 L 442.5,472.0 L 444.0,474.5 L 445.5,477.0 L 447.0,479.5 L 448.5,482.0 L 450.0,484.5 L 451.5,487.0 L 453.5,489.0 L 455.0,491.5 L 457.0,493.5 L 459.5,495.0 L 461.5,497.0 L 464.0,498.5 L 466.5,500.0 L 469.0,501.5 L 472.0,502.5 L 475.0,503.5 L 478.0,504.5 L 480.5,503.0 L 480.0,500.5 L 480.5,497.0 L 481.0,493.5 L 481.5,490.0 L 482.5,487.0 L 484.0,484.5 L 485.5,482.0 L 486.5,479.0 L 488.0,476.5 L 489.5,474.0 L 491.0,471.5 L 492.5,469.0 L 494.0,466.5 L 496.0,464.5 L 498.0,462.5 L 499.5,460.0 L 501.5,458.0 L 503.0,455.5 L 504.5,453.0 L 506.0,450.5 L 507.5,448.0 L 508.5,445.0 L 510.0,442.5 L 511.5,440.0 L 512.5,437.0 L 513.5,434.0 L 514.5,431.0 L 515.0,427.5 L 515.5,424.0 L 515.5,420.0 L 515.5,416.0 L 515.5,412.0 L 514.5,409.0 L 513.0,406.5 L 511.5,404.0 L 509.5,402.0 L 507.0,400.5 L 505.0,398.5 L 502.0,397.5 L 499.0,396.5 L 496.5,395.0 L 493.5,394.0 L 490.5,393.0 L 488.0,391.5 L 485.0,390.5 L 482.5,389.0 L 480.0,387.5 L 477.5,386.0 L 475.0,384.5 L 473.0,382.5 L 471.0,380.5 L 469.0,378.5 L 467.0,376.5 L 465.5,374.0 L 463.5,372.0 L 462.5,369.0 L 461.0,366.5 L 459.5,364.0 L 458.5,361.0 L 457.5,358.0 L 456.5,355.0 L 455.5,352.0 L 455.5,348.0 L 455.5,344.0 L 455.5,340.0 L 455.5,336.0 L 456.5,333.0 L 456.5,329.0 L 458.0,326.5 L 459.5,329.0 L 461.5,331.0 L 463.5,333.0 L 465.5,335.0 L 467.5,337.0 L 470.0,338.5 L 473.0,339.5 L 475.5,341.0 L 478.0,342.5 L 481.0,343.5 L 484.5,344.0 L 488.0,344.5 L 491.0,345.5 L 494.0,346.5 L 497.0,347.5 L 500.0,348.5 L 503.0,349.5 L 505.5,351.0 L 508.0,352.5 L 510.5,354.0 L 513.0,355.5 L 515.0,357.5 L 517.0,359.5 L 519.0,361.5 L 521.0,363.5 L 522.5,366.0 L 524.0,368.5 L 525.5,371.0 L 526.5,374.0 L 527.5,377.0 L 527.5,381.0 L 528.5,384.0 L 528.5,388.0 L 528.5,392.0 L 527.5,395.0 L 527.5,399.0 L 526.5,402.0 L 524.5,401.0 L 523.5,398.0 L 522.5,395.0 L 521.5,392.0 L 520.0,389.5 L 518.5,387.0 L 517.0,384.5 L 515.0,382.5 L 513.5,380.0 L 511.5,378.0 L 509.5,376.0 L 507.5,374.0 L 505.0,372.5 L 503.0,370.5 L 500.5,369.0 L 498.0,367.5 L 496.0,365.5 L 493.0,364.5 L 490.5,363.0 L 488.0,361.5 L 489.0,363.5 L 491.5,365.0 L 494.0,366.5 L 496.0,368.5 L 498.5,370.0 L 500.5,372.0 L 502.5,374.0 L 504.5,376.0 L 506.5,378.0 L 508.5,380.0 L 510.0,382.5 L 511.5,385.0 L 513.5,387.0 L 515.0,389.5 L 516.5,392.0 L 517.5,395.0 L 518.5,398.0 L 519.5,401.0 L 520.5,404.0 L 521.5,407.0 L 522.5,410.0 L 522.5,414.0 L 522.5,418.0 L 522.5,422.0 L 522.5,426.0 L 522.5,430.0 L 521.5,433.0 L 520.5,436.0 L 519.5,439.0 L 521.5,438.0 L 523.5,436.0 L 525.5,434.0 L 527.0,431.5 L 529.0,429.5 L 531.0,427.5 L 532.5,425.0 L 534.5,423.0 L 536.5,421.0 L 539.0,419.5 L 541.0,417.5 L 543.0,415.5 L 545.5,414.0 L 547.5,412.0 L 550.0,410.5 L 552.5,409.0 L 555.0,407.5 L 557.5,406.0 L 560.0,404.5 L 563.0,403.5 L 566.0,402.5 L 569.0,401.5 L 572.0,400.5 L 575.0,399.5 L 579.0,399.5 L 582.0,398.5 L 585.5,398.0 L 582.0,397.5 L 578.0,397.5 L 574.0,397.5 L 571.0,398.5 L 567.0,398.5 L 564.0,399.5 L 561.0,400.5 L 558.0,401.5 L 555.5,403.0 L 553.0,404.5 L 550.0,405.5 L 547.5,407.0 L 545.0,408.5 L 542.5,410.0 L 540.5,412.0 L 538.5,414.0 L 536.5,413.0 L 537.5,410.0 L 539.0,407.5 L 540.0,404.5 L 541.5,402.0 L 542.5,399.0 L 544.5,397.0 L 546.0,394.5 L 548.0,392.5 L 550.0,390.5 L 552.0,388.5 L 554.5,387.0 L 557.0,385.5 L 560.0,384.5 L 563.0,383.5 L 566.0,382.5 L 569.0,381.5 L 573.0,381.5 L 577.0,381.5 L 581.0,381.5 L 584.5,382.0 L 588.0,382.5 L 591.0,383.5 L 595.0,383.5 L 598.0,384.5 L 602.0,384.5 L 605.0,385.5 L 609.0,385.5 L 612.0,384.5 L 615.5,384.0 L 618.0,382.5 L 621.0,381.5 L 623.0,379.5 L 625.5,379.0 L 625.5,383.0 L 624.5,386.0 L 623.5,389.0 L 622.5,392.0 L 621.0,394.5 L 619.5,397.0 L 618.0,399.5 L 616.5,402.0 L 614.5,404.0 L 613.0,406.5 L 611.0,408.5 L 609.0,410.5 L 606.5,412.0 L 604.5,414.0 L 602.0,415.5 L 599.5,417.0 L 597.0,418.5 L 594.0,419.5 L 591.0,420.5 L 588.0,421.5 L 584.5,422.0 L 581.0,422.5 L 577.0,422.5 L 573.0,422.5 L 569.0,422.5 L 566.0,421.5 L 562.0,421.5 L 559.0,420.5 L 555.0,420.5 L 551.5,421.0 L 548.0,421.5 L 545.5,423.0 L 543.0,424.5 L 541.0,426.5 L 538.5,428.0 L 536.5,430.0 L 535.0,432.5 L 533.0,434.5 L 531.5,437.0 L 529.5,439.0 L 528.0,441.5 L 526.0,443.5 L 524.5,446.0 L 523.0,448.5 L 521.5,451.0 L 519.5,453.0 L 518.0,455.5 L 516.5,458.0 L 514.5,460.0 L 513.0,462.5 L 511.0,464.5 L 509.5,467.0 L 507.5,469.0 L 506.0,471.5 L 504.5,474.0 L 503.5,477.0 L 502.5,480.0 L 501.0,482.5 L 500.5,486.0 L 499.5,489.0 L 498.5,492.0 L 498.5,496.0 L 498.5,500.0 L 498.5,504.0 L 499.0,507.5 L 500.0,510.5 L 501.0,513.5 L 502.5,516.0 L 503.5,519.0 L 505.0,521.5 L 506.5,524.0 L 508.5,526.0 L 510.5,528.0 L 513.0,529.5 L 515.0,531.5 L 517.0,533.5 L 519.5,535.0 L 522.0,536.5 L 524.0,538.5 L 526.5,540.0 L 529.0,541.5 L 530.5,544.0 L 532.5,546.0 L 534.5,548.0 L 536.0,550.5 L 537.0,553.5 L 538.5,556.0 L 539.5,559.0 L 540.5,561.0 L 540.5,557.0 L 541.5,554.0 L 542.5,551.0 L 543.5,548.0 L 545.0,545.5 L 546.5,543.0 L 548.5,541.0 L 550.0,538.5 L 552.0,536.5 L 554.0,534.5 L 556.5,533.0 L 559.0,531.5 L 561.5,530.0 L 564.0,528.5 L 566.5,527.0 L 569.5,526.0 L 572.5,525.0 L 575.0,523.5 L 578.0,522.5 L 580.5,521.0 L 583.0,519.5 L 585.0,517.5 L 587.0,515.5 L 588.5,513.0 L 590.5,511.0 L 591.5,508.0 L 593.0,505.5 L 593.5,502.0 L 594.5,499.0 L 594.0,495.5 L 593.0,492.5 L 591.0,490.5 L 588.5,489.0 L 586.0,487.5 L 583.5,486.0 L 581.5,484.0 L 579.5,482.0 L 578.0,479.5 L 576.5,477.0 L 575.5,474.0 L 574.5,471.0 L 573.5,468.0 L 571.5,466.0 L 570.0,463.5 L 568.0,461.5 L 566.0,459.5 L 563.0,458.5 L 560.0,457.5 L 557.5,456.0 L 560.5,455.0 L 564.0,454.5 L 567.0,453.5 L 571.0,453.5 L 575.0,453.5 L 578.0,454.5 L 581.5,455.0 L 584.0,456.5 L 587.0,457.5 L 589.0,459.5 L 591.5,461.0 L 593.5,463.0 L 595.5,465.0 L 597.0,467.5 L 598.5,470.0 L 599.5,473.0 L 600.5,476.0 L 601.5,479.0 L 601.5,483.0 L 601.5,487.0 L 601.5,491.0 L 601.5,495.0 L 600.5,498.0 L 599.5,501.0 L 598.5,504.0 L 597.5,507.0 L 596.5,510.0 L 598.0,510.5 L 599.5,508.0 L 601.5,506.0 L 603.0,503.5 L 605.0,501.5 L 606.5,499.0 L 608.0,496.5 L 610.0,494.5 L 611.5,492.0 L 613.5,490.0 L 615.5,488.0 L 617.5,486.0 L 620.0,484.5 L 622.0,482.5 L 624.5,481.0 L 627.0,479.5 L 629.5,478.0 L 632.0,476.5 L 634.5,475.0 L 637.0,473.5 L 640.0,472.5 L 643.0,471.5 L 646.0,470.5 L 649.0,469.5 L 653.0,469.5 L 656.0,468.5 L 660.0,468.5 L 663.0,467.5 L 663.0,466.5 L 659.0,466.5 L 655.0,466.5 L 651.0,466.5 L 648.0,467.5 L 644.0,467.5 L 641.0,468.5 L 638.0,469.5 L 635.0,470.5 L 632.0,471.5 L 629.0,472.5 L 626.5,474.0 L 624.0,475.5 L 621.5,477.0 L 619.0,478.5 L 617.0,480.5 L 615.0,482.5 L 615.0,479.5 L 616.0,476.5 L 617.5,474.0 L 618.5,471.0 L 620.0,468.5 L 621.5,466.0 L 623.5,464.0 L 625.0,461.5 L 627.0,459.5 L 629.5,458.0 L 631.5,456.0 L 634.0,454.5 L 636.5,453.0 L 639.0,451.5 L 642.0,450.5 L 645.0,449.5 L 649.0,449.5 L 652.0,448.5 L 656.0,448.5 L 659.0,449.5 L 663.0,449.5 L 666.0,450.5 L 669.5,451.0 L 673.0,451.5 L 676.0,452.5 L 679.0,453.5 L 682.0,454.5 L 685.5,455.0 L 689.0,455.5 L 693.0,455.5 L 696.0,456.5 L 699.0,455.5 L 702.0,454.5 L 705.0,453.5 L 708.0,452.5 L 710.0,450.5 L 711.0,452.5 L 710.0,455.5 L 709.0,458.5 L 707.5,461.0 L 706.5,464.0 L 704.5,466.0 L 703.5,469.0 L 701.5,471.0 L 700.0,473.5 L 698.5,476.0 L 696.5,478.0 L 694.5,480.0 L 692.0,481.5 L 690.0,483.5 L 687.5,485.0 L 685.0,486.5 L 682.5,488.0 L 680.0,489.5 L 677.0,490.5 L 674.0,491.5 L 671.0,492.5 L 667.5,493.0 L 664.0,493.5 L 660.0,493.5 L 656.0,493.5 L 652.0,493.5 L 649.0,492.5 L 645.5,492.0 L 642.0,491.5 L 639.0,490.5 L 635.5,490.0 L 632.0,489.5 L 628.0,489.5 L 625.0,490.5 L 622.5,492.0 L 620.0,493.5 L 618.0,495.5 L 616.0,497.5 L 614.5,500.0 L 612.5,502.0 L 611.0,504.5 L 609.5,507.0 L 608.0,509.5 L 606.0,511.5 L 604.5,514.0 L 602.5,516.0 L 601.0,518.5 L 598.5,520.0 L 596.5,522.0 L 594.5,524.0 L 592.0,525.5 L 589.5,527.0 L 587.0,528.5 L 584.5,530.0 L 582.0,531.5 L 579.5,533.0 L 576.5,534.0 L 574.0,535.5 L 571.0,536.5 L 568.5,538.0 L 566.0,539.5 L 564.0,541.5 L 562.5,544.0 L 560.5,546.0 L 558.5,548.0 L 557.5,551.0 L 556.0,553.5 L 555.0,556.5 L 554.5,560.0 L 553.5,563.0 L 553.5,567.0 L 554.0,570.5 L 555.0,573.5 L 555.5,577.0 L 556.5,580.0 L 557.5,583.0 L 558.0,586.5 L 558.5,590.0 L 558.5,594.0 L 558.5,598.0 L 557.5,601.0 L 556.5,604.0 L 556.0,607.5 L 554.5,610.0 L 553.5,613.0 L 552.0,615.5 L 550.5,618.0 L 549.0,620.5 L 547.5,623.0 L 546.0,625.5 L 544.0,627.5 L 542.0,629.5 L 540.0,631.5 L 538.0,633.5 L 536.0,635.5 L 534.0,637.5 L 532.0,639.5 L 529.5,641.0 L 527.5,643.0 L 525.5,645.0 L 523.5,647.0 L 521.5,649.0 L 519.5,651.0 L 517.5,653.0 L 516.0,655.5 L 514.5,658.0 L 513.5,661.0 L 512.5,664.0 L 511.5,667.0 L 510.5,670.0 L 511.0,673.5 L 511.5,670.0 L 513.0,667.5 L 514.5,665.0 L 515.5,662.0 L 517.5,660.0 L 519.0,657.5 L 521.0,655.5 L 523.0,653.5 L 525.0,651.5 L 527.0,649.5 L 529.5,648.0 L 531.5,647.0 L 530.5,650.0 L 529.0,652.5 L 527.5,655.0 L 526.5,658.0 L 525.5,661.0 L 525.5,665.0 L 525.5,669.0 L 525.5,673.0 L 526.5,676.0 L 527.5,679.0 L 528.5,682.0 L 530.5,684.0 L 532.0,686.5 L 534.0,688.5 L 536.5,690.0 L 539.0,691.5 L 541.5,693.0 L 544.5,694.0 L 547.0,695.5 L 550.0,696.5 Z"/>
</g></svg>